<svg width="21" height="24" viewBox="0 0 21 24" fill="none" xmlns="http://www.w3.org/2000/svg">
<path fill-rule="evenodd" clip-rule="evenodd" d="M15.9672 5.75407H18.1967C19.423 5.75407 20.4262 6.75735 20.4262 7.98358V21.3606C20.4262 22.5869 19.423 23.5901 18.1967 23.5901H2.59016C1.36394 23.5901 0.360657 22.5869 0.360657 21.3606V7.98358C0.360657 6.75735 1.36394 5.75407 2.59016 5.75407H4.81967C4.81967 2.67735 7.31672 0.180298 10.3934 0.180298C13.4702 0.180298 15.9672 2.67735 15.9672 5.75407ZM13.7377 5.75406C13.7377 3.90357 12.2439 2.4098 10.3934 2.4098C8.54295 2.4098 7.04918 3.90357 7.04918 5.75406H13.7377ZM18.1967 21.3606H2.59017V7.98358H18.1967V21.3606ZM7.04917 9.09833C7.04917 10.9488 8.54294 12.4426 10.3934 12.4426C12.2439 12.4426 13.7377 10.9488 13.7377 9.09833H15.9672C15.9672 12.1751 13.4702 14.6721 10.3934 14.6721C7.31671 14.6721 4.81966 12.1751 4.81966 9.09833H7.04917Z" fill="white"/>
</svg>
